<svg viewBox="0 0 512.00095 512" xmlns="http://www.w3.org/2000/svg"><path d="m255 202c11.046875 0 20 8.953125 20 20s-8.953125 20-20 20-20-8.953125-20-20 8.953125-20 20-20zm70 20c0 11.046875 8.953125 20 20 20s20-8.953125 20-20-8.953125-20-20-20-20 8.953125-20 20zm-180 0c0 11.046875 8.953125 20 20 20s20-8.953125 20-20-8.953125-20-20-20-20 8.953125-20 20zm349.414062 187.5625c23.40625 23.40625 23.40625 61.46875.011719 84.863281-11.695312 11.695313-27.0625 17.546875-42.425781 17.546875s-30.730469-5.851562-42.425781-17.546875l-109.789063-109.542969c-2.332031-2.328124-4.050781-5.191406-5.007812-8.347656l-23.914063-78.722656c-2.121093-6.980469-.273437-14.558594 4.820313-19.78125 5.09375-5.21875 12.625-7.25 19.65625-5.304688l80.722656 22.359376c3.324219.921874 6.351562 2.683593 8.792969 5.121093zm-162.824218-49.453125 74.089844 73.925781 28.289062-28.289062-73.652344-73.511719-40.609375-11.25zm134.550781 77.75-3.859375-3.855469-28.285156 28.285156 3.847656 3.835938c7.8125 7.816406 20.5 7.816406 28.296875.015625 7.800781-7.796875 7.800781-20.484375 0-28.28125zm-199.015625-23.40625c-3.695312.160156-7.4375.242187-11.125.242187-32.160156 0-63.121094-5.988281-92.019531-17.796874-4.921875-2.007813-10.445313-1.976563-15.34375.089843l-91.066407 38.441407 30.683594-72.683594c3-7.105469 1.644532-15.308594-3.488281-21.074219-29.285156-32.898437-44.765625-72.261719-44.765625-113.824219 0-103.578125 96.898438-187.847656 216-187.847656s216 84.269531 216 187.847656c0 24.5625-6.03125 49.222656-17.929688 73.289063-4.894531 9.902343-.835937 21.898437 9.066407 26.792969 9.902343 4.894531 21.898437.835937 26.792969-9.066407 14.644531-29.628906 22.070312-60.25 22.070312-91.015625 0-125.636718-114.839844-227.847656-256-227.847656-141.15625 0-256 102.210938-256 227.847656 0 47.421875 16.078125 92.332032 46.636719 130.632813l-45.0625 106.742187c-3.164063 7.496094-1.46875 16.164063 4.285156 21.917969 3.828125 3.828125 8.941406 5.859375 14.144531 5.859375 2.621094 0 5.265625-.515625 7.773438-1.574219l128.929687-54.425781c31.445313 11.746094 64.808594 17.695312 99.292969 17.695312 4.265625 0 8.597656-.097656 12.875-.28125 11.035156-.484374 19.589844-9.820312 19.105469-20.855468-.480469-11.035156-9.835938-19.617188-20.855469-19.105469zm0 0"/></svg>